<?xml version="1.0" encoding="UTF-8"?>
<svg width="218px" height="59px" viewBox="0 0 218 59" version="1.1" xmlns="http://www.w3.org/2000/svg" xmlns:xlink="http://www.w3.org/1999/xlink">
    <!-- Generator: Sketch 49.2 (51160) - http://www.bohemiancoding.com/sketch -->
    <title>Logo-white-svg1</title>
    <desc>Created with Sketch.</desc>
    <defs></defs>
    <g id="Page-1" stroke="none" stroke-width="1" fill="none" fill-rule="evenodd">
        <g id="home-outlyer-v1" transform="translate(-125.000000, -45.000000)">
            <g id="Logo-white-svg1" transform="translate(125.000000, 45.000000)">
                <path d="M73.6210937,42.1427297 C71.423828,44.6155218 67.5859374,47 62.3417968,47 C55.3105468,47 52,43.1436217 52,36.8733274 L52,14 L60.408203,14 L60.408203,33.5468332 C60.408203,38.0214095 62.7226562,39.4933096 66.2968749,39.4933096 C69.5488281,39.4933096 72.1269531,37.6975915 73.5917968,35.8135594 L73.5917968,14 L82,14 L82,46.2051739 L73.5917968,46.2051739 L73.5917968,42.1427297 L73.6210937,42.1427297 Z" id="Shape_1_" fill="#FFFFFF" fill-rule="nonzero"></path>
                <path d="M92.192623,38.18575 L92.192623,21.2971019 L87,21.2971019 L87,13.8436179 L92.192623,13.8436179 L92.192623,5 L100.512295,5 L100.512295,13.8436179 L106.881148,13.8436179 L106.881148,21.2971019 L100.512295,21.2971019 L100.512295,35.8787193 C100.512295,37.8899769 101.545082,39.4279974 103.381148,39.4279974 C104.614754,39.4279974 105.790984,38.9547603 106.25,38.4815232 L108,44.9293784 C106.766393,46.0828938 104.557377,46.9997907 101.114754,46.9997907 C95.2909836,47.029368 92.192623,43.9237496 92.192623,38.18575 Z" id="Shape_2_" fill="#FFFFFF" fill-rule="nonzero"></path>
                <polygon id="Shape_3_" fill="#FFFFFF" fill-rule="nonzero" points="113 3 122 3 122 46 113 46"></polygon>
                <path d="M133.36532,51.8426528 C135.574916,51.8426528 137.018519,51.2834851 137.843434,49.6339401 L139.051347,47.0338102 L126,16 L135.074074,16 L143.470539,37.2763329 L151.867003,16 L161,16 L145.886364,51.5910273 C143.5,57.3504552 139.228114,58.8881664 133.689394,59 C132.68771,59 130.566498,58.8042914 129.476431,58.5526658 L130.743266,51.3394017 C131.450337,51.6469441 132.569865,51.8426528 133.36532,51.8426528 Z" id="Shape_4_" fill="#FFFFFF" fill-rule="nonzero"></path>
                <path d="M175.7646,14 C184.844565,14 191,21.0365536 191,31.3185379 L191,33.1279374 L168.383648,33.1279374 C168.884996,37.0913838 171.97664,40.4229765 177.12938,40.4229765 C179.970351,40.4229765 183.312669,39.2454308 185.262354,37.2924281 L188.799642,42.6344648 C185.707998,45.5639687 181.000899,47 176.265948,47 C166.991015,47 160,40.5665795 160,30.4569191 C160,21.3524805 166.489668,14 175.7646,14 Z M168.272237,27.5274151 L183.256964,27.5274151 C183.061995,24.54047 181.056604,20.5770235 175.7646,20.5770235 C170.778976,20.5770235 168.634322,24.3968667 168.272237,27.5274151 Z" id="Shape_5_" fill="#FFFFFF" fill-rule="nonzero"></path>
                <path d="M199,14.7372654 L207.587402,14.7372654 L207.587402,19.1608579 C209.891338,16.2707775 213.930708,14 218,14 L218,22.2868633 C217.401574,22.1394102 216.563779,22.0804289 215.63622,22.0804289 C212.7937,22.0804289 208.993701,23.613941 207.587402,25.6782842 L207.587402,47 L199,47 L199,14.7372654 Z" id="Shape_6_" fill="#FFFFFF" fill-rule="nonzero"></path>
                <g id="Group">
                    <ellipse id="Oval" cx="23.3989363" cy="25.2545091" rx="14.2582645" ry="14.4055306"></ellipse>
                    <g>
                        <ellipse id="Oval" cx="39.2250182" cy="6.54525145" rx="6.44875866" ry="6.51536447"></ellipse>
                        <ellipse id="Oval" cx="23.3989363" cy="25.2545091" rx="14.2582645" ry="14.4055306"></ellipse>
                        <path d="M43.4551673,12.791633 C42.2423273,13.6284688 40.7928356,14.1066607 39.2250182,14.1066607 C35.0836135,14.1066607 31.7409084,10.7294305 31.7409084,6.54525145 C31.7409084,5.37965874 32.0071416,4.27384 32.4508636,3.28756923 C29.6702061,2.12197649 26.6233156,1.46446266 23.4285176,1.46446266 C10.5014189,1.49434965 0,12.1042321 0,25.1947351 C0,38.2852381 10.5014189,48.8951205 23.4580991,48.8951205 C36.4147794,48.8951205 46.9161983,38.2852381 46.9161983,25.1947351 C46.9457798,20.6519122 45.6737769,16.4079591 43.4551673,12.791633 Z M23.3989363,39.6600397 C15.5302674,39.6600397 9.14067167,33.2044492 9.14067167,25.2545091 C9.14067167,17.3045689 15.5302674,10.8489784 23.3989363,10.8489784 C31.2676051,10.8489784 37.6572009,17.3045689 37.6572009,25.2545091 C37.6572009,33.2044492 31.2676051,39.6600397 23.3989363,39.6600397 Z" id="Shape" fill="#FFFFFF" fill-rule="nonzero"></path>
                    </g>
                    <ellipse id="Oval" fill="#56CAB2" fill-rule="nonzero" cx="39.2250182" cy="6.54525145" rx="6.44875866" ry="6.51536447"></ellipse>
                </g>
            </g>
        </g>
    </g>
</svg>